<?xml version="1.0" encoding="UTF-8" standalone="no"?>
<!DOCTYPE svg PUBLIC "-//W3C//DTD SVG 1.1//EN" "http://www.w3.org/Graphics/SVG/1.1/DTD/svg11.dtd">
<!-- 由 Microsoft Visio, SVG Export 生成 向量代数分解.svg 页-1 -->
<svg xmlns="http://www.w3.org/2000/svg" xmlns:xlink="http://www.w3.org/1999/xlink" xmlns:ev="http://www.w3.org/2001/xml-events"
		xmlns:v="http://schemas.microsoft.com/visio/2003/SVGExtensions/" width="6.82225in" height="3.00083in"
		viewBox="0 0 491.202 216.06" xml:space="preserve" color-interpolation-filters="sRGB" class="st8">
	<v:documentProperties v:langID="2052" v:metric="true" v:viewMarkup="false"/>

	<style type="text/css">
	<![CDATA[
		.st1 {marker-end:url(#mrkr1-6);stroke:#000000;stroke-linecap:round;stroke-linejoin:round;stroke-width:1}
		.st2 {fill:#000000;fill-opacity:1;stroke:#000000;stroke-opacity:1;stroke-width:0.28409090909091}
		.st3 {marker-start:url(#mrkr1-12);stroke:#000000;stroke-linecap:round;stroke-linejoin:round;stroke-width:1}
		.st4 {fill:none;stroke:none;stroke-linecap:round;stroke-linejoin:round;stroke-width:0.75}
		.st5 {fill:#000000;font-family:Times New Roman;font-size:1.00001em;font-style:italic;font-weight:bold}
		.st6 {stroke:#000000;stroke-dasharray:0,5;stroke-linecap:round;stroke-linejoin:round;stroke-width:1}
		.st7 {stroke:#000000;stroke-linecap:round;stroke-linejoin:round;stroke-width:1}
		.st8 {fill:none;fill-rule:evenodd;font-size:12px;overflow:visible;stroke-linecap:square;stroke-miterlimit:3}
	]]>
	</style>

	<defs id="Markers">
		<g id="lend1">
			<path d="M 1 -1 L 0 0 L 1 1 " style="stroke-linecap:round;stroke-linejoin:round;fill:none"/>
		</g>
		<marker id="mrkr1-6" class="st2" v:arrowType="1" v:arrowSize="2" orient="auto" markerUnits="strokeWidth" overflow="visible">
			<use xlink:href="#lend1" transform="scale(-3.52,-3.52) "/>
		</marker>
		<marker id="mrkr1-12" class="st2" v:arrowType="1" v:arrowSize="2" orient="auto" markerUnits="strokeWidth"
				overflow="visible">
			<use xlink:href="#lend1" transform="scale(3.52) "/>
		</marker>
	</defs>
	<g v:mID="0" v:index="1" v:groupContext="foregroundPage">
		<title>页-1</title>
		<v:pageProperties v:drawingScale="0.0393701" v:pageScale="0.0393701" v:drawingUnits="24" v:shadowOffsetX="4.25197"
				v:shadowOffsetY="-4.25197"/>
		<g id="shape28-1" v:mID="28" v:groupContext="shape" transform="translate(252.824,-70.9311)">
			<title>工作表.28</title>
			<path d="M0 216.06 L221.05 216.06" class="st1"/>
		</g>
		<g id="shape29-7" v:mID="29" v:groupContext="shape" transform="translate(500.065,4.97803) rotate(90)">
			<title>工作表.29</title>
			<path d="M0 216.06 L179.84 216.06" class="st3"/>
		</g>
		<g id="shape31-13" v:mID="31" v:groupContext="shape" transform="translate(291.774,-202.411)">
			<title>工作表.31</title>
			<desc>y</desc>
			<v:textBlock v:margins="rect(2,2,2,2)" v:tabSpace="42.5197"/>
			<v:textRect cx="4.93369" cy="210.06" width="9.87" height="12"/>
			<rect x="0" y="204.06" width="9.86739" height="12" class="st4"/>
			<text x="2.27" y="213.66" class="st5" v:langID="2052"><v:paragraph v:horizAlign="1"/><v:tabList/>y</text>		</g>
		<g id="shape32-16" v:mID="32" v:groupContext="shape" transform="translate(480.96,-61.7657)">
			<title>工作表.32</title>
			<desc>x</desc>
			<v:textBlock v:margins="rect(2,2,2,2)" v:tabSpace="42.5197"/>
			<v:textRect cx="4.93369" cy="210.06" width="9.87" height="12"/>
			<rect x="0" y="204.06" width="9.86739" height="12" class="st4"/>
			<text x="2" y="213.66" class="st5" v:langID="2052"><v:paragraph v:horizAlign="1"/><v:tabList/>x</text>		</g>
		<g id="shape194-19" v:mID="194" v:groupContext="shape" transform="translate(63.7902,67.9084) rotate(-48.4973)">
			<title>工作表.194</title>
			<path d="M0 216.06 L88.06 216.06" class="st3"/>
		</g>
		<g id="shape195-24" v:mID="195" v:groupContext="shape" transform="translate(161.196,-32.9179) rotate(-34.639)">
			<title>工作表.195</title>
			<path d="M0 216.06 L176.54 216.06" class="st1"/>
		</g>
		<g id="shape196-29" v:mID="196" v:groupContext="shape" transform="translate(246.618,-28.7301)">
			<title>工作表.196</title>
			<path d="M182.64 73.23 L182.64 214.96 L0 216.06" class="st6"/>
		</g>
		<g id="shape197-32" v:mID="197" v:groupContext="shape" transform="translate(267.277,43.2442) rotate(-48.5633)">
			<title>工作表.197</title>
			<path d="M0 216.06 L54.83 216.06" class="st6"/>
		</g>
		<g id="shape199-35" v:mID="199" v:groupContext="shape" transform="translate(235.135,-1.48226)">
			<title>工作表.199</title>
			<desc>z</desc>
			<v:textBlock v:margins="rect(2,2,2,2)" v:tabSpace="42.5197"/>
			<v:textRect cx="4.93369" cy="210.06" width="9.87" height="12"/>
			<rect x="0" y="204.06" width="9.86739" height="12" class="st4"/>
			<text x="2.6" y="213.66" class="st5" v:langID="2052"><v:paragraph v:horizAlign="1"/><v:tabList/>z</text>		</g>
		<g id="shape200-38" v:mID="200" v:groupContext="shape" transform="translate(263.481,-74.5216)">
			<title>工作表.200</title>
			<desc>o</desc>
			<v:textBlock v:margins="rect(2,2,2,2)" v:tabSpace="42.5197"/>
			<v:textRect cx="4.93369" cy="210.06" width="9.87" height="12"/>
			<rect x="0" y="204.06" width="9.86739" height="12" class="st4"/>
			<text x="2" y="213.66" class="st5" v:langID="2052"><v:paragraph v:horizAlign="1"/><v:tabList/>o</text>		</g>
		<g id="shape201-41" v:mID="201" v:groupContext="shape" transform="translate(429.254,-179.734)">
			<title>工作表.201</title>
			<desc>A</desc>
			<v:textBlock v:margins="rect(2,2,2,2)" v:tabSpace="42.5197"/>
			<v:textRect cx="4.93369" cy="210.06" width="9.87" height="12"/>
			<rect x="0" y="204.06" width="9.86739" height="12" class="st4"/>
			<text x="2" y="213.66" class="st5" v:langID="2052"><v:paragraph v:horizAlign="1"/><v:tabList/>A</text>		</g>
		<g id="shape202-44" v:mID="202" v:groupContext="shape" transform="translate(344.215,-28.7301)">
			<title>工作表.202</title>
			<desc>a</desc>
			<v:textBlock v:margins="rect(2,2,2,2)" v:tabSpace="42.5197"/>
			<v:textRect cx="4.93369" cy="210.06" width="9.87" height="12"/>
			<rect x="0" y="204.06" width="9.86739" height="12" class="st4"/>
			<text x="2" y="213.66" class="st5" v:langID="2052"><v:paragraph v:horizAlign="1"/><v:tabList/>a</text>		</g>
		<g id="shape203-47" v:mID="203" v:groupContext="shape" transform="translate(431.407,-107.781)">
			<title>工作表.203</title>
			<desc>b</desc>
			<v:textBlock v:margins="rect(2,2,2,2)" v:tabSpace="42.5197"/>
			<v:textRect cx="4.93369" cy="210.06" width="9.87" height="12"/>
			<rect x="0" y="204.06" width="9.86739" height="12" class="st4"/>
			<text x="2" y="213.66" class="st5" v:langID="2052"><v:paragraph v:horizAlign="1"/><v:tabList/>b</text>		</g>
		<g id="shape204-50" v:mID="204" v:groupContext="shape" transform="translate(445.58,-35.8287)">
			<title>工作表.204</title>
			<desc>c</desc>
			<v:textBlock v:margins="rect(2,2,2,2)" v:tabSpace="42.5197"/>
			<v:textRect cx="4.93369" cy="210.06" width="9.87" height="12"/>
			<rect x="0" y="204.06" width="9.86739" height="12" class="st4"/>
			<text x="2.27" y="213.66" class="st5" v:langID="2052"><v:paragraph v:horizAlign="1"/><v:tabList/>c</text>		</g>
		<g id="shape206-53" v:mID="206" v:groupContext="shape" transform="translate(253.294,-28.7838)">
			<title>工作表.206</title>
			<path d="M0 208.57 L7.93 208.57 L2.26 216.06" class="st7"/>
		</g>
		<g id="shape207-56" v:mID="207" v:groupContext="shape" transform="translate(419.961,-29.7728)">
			<title>工作表.207</title>
			<path d="M9.29 207.5 L0 207.5 L0 216.06" class="st7"/>
		</g>
		<g id="shape208-59" v:mID="208" v:groupContext="shape" transform="translate(429.254,-34.9053)">
			<title>工作表.208</title>
			<path d="M0 210.79 L4.3 204.06 L4.48 216.06" class="st7"/>
		</g>
		<g id="shape209-62" v:mID="209" v:groupContext="shape" transform="translate(4.97803,-70.6004)">
			<title>工作表.209</title>
			<path d="M0 216.06 L221.05 216.06" class="st1"/>
		</g>
		<g id="shape210-67" v:mID="210" v:groupContext="shape" transform="translate(252.219,5.30874) rotate(90)">
			<title>工作表.210</title>
			<path d="M0 216.06 L179.84 216.06" class="st3"/>
		</g>
		<g id="shape211-72" v:mID="211" v:groupContext="shape" transform="translate(43.9275,-202.081)">
			<title>工作表.211</title>
			<desc>y</desc>
			<v:textBlock v:margins="rect(2,2,2,2)" v:tabSpace="42.5197"/>
			<v:textRect cx="4.93369" cy="210.06" width="9.87" height="12"/>
			<rect x="0" y="204.06" width="9.86739" height="12" class="st4"/>
			<text x="2.27" y="213.66" class="st5" v:langID="2052"><v:paragraph v:horizAlign="1"/><v:tabList/>y</text>		</g>
		<g id="shape212-75" v:mID="212" v:groupContext="shape" transform="translate(233.113,-61.435)">
			<title>工作表.212</title>
			<desc>x</desc>
			<v:textBlock v:margins="rect(2,2,2,2)" v:tabSpace="42.5197"/>
			<v:textRect cx="4.93369" cy="210.06" width="9.87" height="12"/>
			<rect x="0" y="204.06" width="9.86739" height="12" class="st4"/>
			<text x="2" y="213.66" class="st5" v:langID="2052"><v:paragraph v:horizAlign="1"/><v:tabList/>x</text>		</g>
		<g id="shape214-78" v:mID="214" v:groupContext="shape" transform="translate(-86.65,-32.5871) rotate(-34.639)">
			<title>工作表.214</title>
			<path d="M0 216.06 L176.54 216.06" class="st1"/>
		</g>
		<g id="shape218-83" v:mID="218" v:groupContext="shape" transform="translate(15.6349,-74.1909)">
			<title>工作表.218</title>
			<desc>o</desc>
			<v:textBlock v:margins="rect(2,2,2,2)" v:tabSpace="42.5197"/>
			<v:textRect cx="4.93369" cy="210.06" width="9.87" height="12"/>
			<rect x="0" y="204.06" width="9.86739" height="12" class="st4"/>
			<text x="2" y="213.66" class="st5" v:langID="2052"><v:paragraph v:horizAlign="1"/><v:tabList/>o</text>		</g>
		<g id="shape219-86" v:mID="219" v:groupContext="shape" transform="translate(181.408,-179.404)">
			<title>工作表.219</title>
			<desc>A</desc>
			<v:textBlock v:margins="rect(2,2,2,2)" v:tabSpace="42.5197"/>
			<v:textRect cx="4.93369" cy="210.06" width="9.87" height="12"/>
			<rect x="0" y="204.06" width="9.86739" height="12" class="st4"/>
			<text x="2" y="213.66" class="st5" v:langID="2052"><v:paragraph v:horizAlign="1"/><v:tabList/>A</text>		</g>
		<g id="shape221-89" v:mID="221" v:groupContext="shape" transform="translate(183.561,-107.451)">
			<title>工作表.221</title>
			<desc>b</desc>
			<v:textBlock v:margins="rect(2,2,2,2)" v:tabSpace="42.5197"/>
			<v:textRect cx="4.93369" cy="210.06" width="9.87" height="12"/>
			<rect x="0" y="204.06" width="9.86739" height="12" class="st4"/>
			<text x="2" y="213.66" class="st5" v:langID="2052"><v:paragraph v:horizAlign="1"/><v:tabList/>b</text>		</g>
		<g id="shape226-92" v:mID="226" v:groupContext="shape" transform="translate(36.1591,-70.6004)">
			<title>工作表.226</title>
			<path d="M145.12 216.06 L145.25 115.43 L0 115.1" class="st6"/>
		</g>
		<g id="shape227-95" v:mID="227" v:groupContext="shape" transform="translate(98.2823,-173.734)">
			<title>工作表.227</title>
			<desc>a</desc>
			<v:textBlock v:margins="rect(2,2,2,2)" v:tabSpace="42.5197"/>
			<v:textRect cx="4.93369" cy="210.06" width="9.87" height="12"/>
			<rect x="0" y="204.06" width="9.86739" height="12" class="st4"/>
			<text x="2" y="213.66" class="st5" v:langID="2052"><v:paragraph v:horizAlign="1"/><v:tabList/>a</text>		</g>
		<g id="shape228-98" v:mID="228" v:groupContext="shape" transform="translate(36.1591,-163.057)">
			<title>工作表.228</title>
			<path d="M8.15 207.57 L8.15 216.06 L0 216.06" class="st7"/>
		</g>
		<g id="shape229-101" v:mID="229" v:groupContext="shape" transform="translate(181.294,-70.6004)">
			<title>工作表.229</title>
			<path d="M0 208.01 L7.64 208.02 L7.64 216.06" class="st7"/>
		</g>
		<g id="shape230-104" v:mID="230" v:groupContext="shape" transform="translate(18.141,-163.057)">
			<title>工作表.230</title>
			<desc>B</desc>
			<v:textBlock v:margins="rect(2,2,2,2)" v:tabSpace="42.5197"/>
			<v:textRect cx="4.93369" cy="210.06" width="9.87" height="12"/>
			<rect x="0" y="204.06" width="9.86739" height="12" class="st4"/>
			<text x="2" y="213.66" class="st5" v:langID="2052"><v:paragraph v:horizAlign="1"/><v:tabList/>B</text>		</g>
		<g id="shape231-107" v:mID="231" v:groupContext="shape" transform="translate(171.54,-49.6712)">
			<title>工作表.231</title>
			<desc>C</desc>
			<v:textBlock v:margins="rect(2,2,2,2)" v:tabSpace="42.5197"/>
			<v:textRect cx="4.93369" cy="210.06" width="9.87" height="12"/>
			<rect x="0" y="204.06" width="9.86739" height="12" class="st4"/>
			<text x="2" y="213.66" class="st5" v:langID="2052"><v:paragraph v:horizAlign="1"/><v:tabList/>C</text>		</g>
	</g>
</svg>
