<?xml version="1.0" encoding="UTF-8" standalone="no"?>
<!DOCTYPE svg PUBLIC "-//W3C//DTD SVG 1.1//EN" "http://www.w3.org/Graphics/SVG/1.1/DTD/svg11.dtd">
<!-- 由 Microsoft Visio, SVG Export 生成 圆.svg 页-1 -->
<svg xmlns="http://www.w3.org/2000/svg" xmlns:xlink="http://www.w3.org/1999/xlink" xmlns:ev="http://www.w3.org/2001/xml-events"
		xmlns:v="http://schemas.microsoft.com/visio/2003/SVGExtensions/" width="3.45568in" height="2.70478in"
		viewBox="0 0 248.809 194.744" xml:space="preserve" color-interpolation-filters="sRGB" class="st10">
	<v:documentProperties v:langID="2052" v:metric="true" v:viewMarkup="false"/>

	<style type="text/css">
	<![CDATA[
		.st1 {fill:#ffffff;stroke:none;stroke-linecap:round;stroke-linejoin:round;stroke-width:0.75}
		.st2 {fill:#262626;fill-opacity:0.42;stroke:none;stroke-linecap:round;stroke-linejoin:round;stroke-width:0.75}
		.st3 {fill:#262626;fill-opacity:0.43;stroke:none;stroke-linecap:round;stroke-linejoin:round;stroke-width:0.75}
		.st4 {fill:#262626;fill-opacity:0.58;stroke:none;stroke-linecap:round;stroke-linejoin:round;stroke-width:0.75}
		.st5 {fill:#262626;fill-opacity:0.4;stroke:none;stroke-linecap:round;stroke-linejoin:round;stroke-width:0.75}
		.st6 {stroke:#262626;stroke-linecap:round;stroke-linejoin:round;stroke-width:0.359708}
		.st7 {stroke:none;stroke-linecap:round;stroke-linejoin:round;stroke-width:0.75}
		.st8 {fill:#262626;font-family:Arial;font-size:1.00001em}
		.st9 {stroke:#0072bd;stroke-linecap:round;stroke-linejoin:round;stroke-width:0.359708}
		.st10 {fill:none;fill-rule:evenodd;font-size:12px;overflow:visible;stroke-linecap:square;stroke-miterlimit:3}
	]]>
	</style>

	<g v:mID="0" v:index="1" v:groupContext="foregroundPage">
		<title>页-1</title>
		<v:pageProperties v:drawingScale="0.0393701" v:pageScale="0.0393701" v:drawingUnits="24" v:shadowOffsetX="4.25197"
				v:shadowOffsetY="-4.25197"/>
		<g id="group12822-1" transform="translate(0,-3.1241)" v:mID="12822" v:groupContext="group">
			<title>工作表.12822</title>
			<g id="shape12767-2" v:mID="12767" v:groupContext="shape" transform="translate(21.1639,-12.6473)">
				<title>工作表.12767</title>
				<path d="M0 15.95 L0 194.74 L227.47 194.74 L227.47 15.95 L0 15.95 L0 15.95 Z" class="st1"/>
			</g>
			<g id="shape12768-4" v:mID="12768" v:groupContext="shape" transform="translate(31.1548,-12.6473)">
				<title>工作表.12768</title>
				<path d="M0 194.74 L0 15.95 L0.52 15.95 L0.52 194.74 L0 194.74 Z" class="st2"/>
			</g>
			<g id="shape12769-6" v:mID="12769" v:groupContext="shape" transform="translate(65.6481,-12.6473)">
				<title>工作表.12769</title>
				<path d="M0 194.74 L0 15.95 L0.52 15.95 L0.52 194.74 L0 194.74 Z" class="st2"/>
			</g>
			<g id="shape12770-8" v:mID="12770" v:groupContext="shape" transform="translate(100.141,-12.6473)">
				<title>工作表.12770</title>
				<path d="M0 194.74 L0 15.95 L0.52 15.95 L0.52 194.74 L0 194.74 Z" class="st3"/>
			</g>
			<g id="shape12771-10" v:mID="12771" v:groupContext="shape" transform="translate(134.635,-12.6473)">
				<title>工作表.12771</title>
				<path d="M0 194.74 L0 15.95 L0.52 15.95 L0.52 194.74 L0 194.74 Z" class="st3"/>
			</g>
			<g id="shape12772-12" v:mID="12772" v:groupContext="shape" transform="translate(169.161,-12.6473)">
				<title>工作表.12772</title>
				<path d="M0 194.74 L0 15.95 L0.52 15.95 L0.52 194.74 L0 194.74 Z" class="st4"/>
			</g>
			<g id="shape12773-14" v:mID="12773" v:groupContext="shape" transform="translate(203.654,-12.6473)">
				<title>工作表.12773</title>
				<path d="M0 194.74 L0 15.95 L0.52 15.95 L0.52 194.74 L0 194.74 Z" class="st4"/>
			</g>
			<g id="shape12774-16" v:mID="12774" v:groupContext="shape" transform="translate(238.147,-12.6473)">
				<title>工作表.12774</title>
				<path d="M0 194.74 L0 15.95 L0.52 15.95 L0.52 194.74 L0 194.74 Z" class="st4"/>
			</g>
			<g id="shape12775-18" v:mID="12775" v:groupContext="shape" transform="translate(21.1639,-33.0174)">
				<title>工作表.12775</title>
				<path d="M227.47 194.74 L0 194.74 L0 194.22 L227.47 194.22 L227.47 194.74 Z" class="st4"/>
			</g>
			<g id="shape12776-20" v:mID="12776" v:groupContext="shape" transform="translate(21.1639,-67.3919)">
				<title>工作表.12776</title>
				<path d="M227.47 194.74 L0 194.74 L0 194.22 L227.47 194.22 L227.47 194.74 Z" class="st5"/>
			</g>
			<g id="shape12777-22" v:mID="12777" v:groupContext="shape" transform="translate(21.1639,-101.799)">
				<title>工作表.12777</title>
				<path d="M227.47 194.74 L0 194.74 L0 194.22 L227.47 194.22 L227.47 194.74 Z" class="st5"/>
			</g>
			<g id="shape12778-24" v:mID="12778" v:groupContext="shape" transform="translate(21.1639,-136.174)">
				<title>工作表.12778</title>
				<path d="M227.47 194.74 L0 194.74 L0 194.22 L227.47 194.22 L227.47 194.74 Z" class="st4"/>
			</g>
			<g id="shape12779-26" v:mID="12779" v:groupContext="shape" transform="translate(21.1639,-170.548)">
				<title>工作表.12779</title>
				<path d="M227.47 194.74 L0 194.74 L0 194.22 L227.47 194.22 L227.47 194.74 Z" class="st4"/>
			</g>
			<g id="shape12780-28" v:mID="12780" v:groupContext="shape" transform="translate(21.1639,-12.6473)">
				<title>工作表.12780</title>
				<path d="M0 194.74 L227.47 194.74" class="st6"/>
			</g>
			<g id="shape12781-31" v:mID="12781" v:groupContext="shape" transform="translate(21.1639,-191.44)">
				<title>工作表.12781</title>
				<path d="M0 194.74 L227.47 194.74" class="st6"/>
			</g>
			<g id="shape12782-34" v:mID="12782" v:groupContext="shape" transform="translate(31.4169,-12.6473)">
				<title>工作表.12782</title>
				<path d="M0 194.74 L0 192.46" class="st6"/>
			</g>
			<g id="shape12783-37" v:mID="12783" v:groupContext="shape" transform="translate(65.9101,-12.6473)">
				<title>工作表.12783</title>
				<path d="M0 194.74 L0 192.46" class="st6"/>
			</g>
			<g id="shape12784-40" v:mID="12784" v:groupContext="shape" transform="translate(100.403,-12.6473)">
				<title>工作表.12784</title>
				<path d="M0 194.74 L0 192.46" class="st6"/>
			</g>
			<g id="shape12785-43" v:mID="12785" v:groupContext="shape" transform="translate(134.897,-12.6473)">
				<title>工作表.12785</title>
				<path d="M0 194.74 L0 192.46" class="st6"/>
			</g>
			<g id="shape12786-46" v:mID="12786" v:groupContext="shape" transform="translate(169.423,-12.6473)">
				<title>工作表.12786</title>
				<path d="M0 194.74 L0 192.46" class="st6"/>
			</g>
			<g id="shape12787-49" v:mID="12787" v:groupContext="shape" transform="translate(203.916,-12.6473)">
				<title>工作表.12787</title>
				<path d="M0 194.74 L0 192.46" class="st6"/>
			</g>
			<g id="shape12788-52" v:mID="12788" v:groupContext="shape" transform="translate(238.409,-12.6473)">
				<title>工作表.12788</title>
				<path d="M0 194.74 L0 192.46" class="st6"/>
			</g>
			<g id="shape12789-55" v:mID="12789" v:groupContext="shape" transform="translate(31.4169,-189.155)">
				<title>工作表.12789</title>
				<path d="M0 192.46 L0 194.74" class="st6"/>
			</g>
			<g id="shape12790-58" v:mID="12790" v:groupContext="shape" transform="translate(65.9101,-189.155)">
				<title>工作表.12790</title>
				<path d="M0 192.46 L0 194.74" class="st6"/>
			</g>
			<g id="shape12791-61" v:mID="12791" v:groupContext="shape" transform="translate(100.403,-189.155)">
				<title>工作表.12791</title>
				<path d="M0 192.46 L0 194.74" class="st6"/>
			</g>
			<g id="shape12792-64" v:mID="12792" v:groupContext="shape" transform="translate(134.897,-189.155)">
				<title>工作表.12792</title>
				<path d="M0 192.46 L0 194.74" class="st6"/>
			</g>
			<g id="shape12793-67" v:mID="12793" v:groupContext="shape" transform="translate(169.423,-189.155)">
				<title>工作表.12793</title>
				<path d="M0 192.46 L0 194.74" class="st6"/>
			</g>
			<g id="shape12794-70" v:mID="12794" v:groupContext="shape" transform="translate(203.916,-189.155)">
				<title>工作表.12794</title>
				<path d="M0 192.46 L0 194.74" class="st6"/>
			</g>
			<g id="shape12795-73" v:mID="12795" v:groupContext="shape" transform="translate(238.409,-189.155)">
				<title>工作表.12795</title>
				<path d="M0 192.46 L0 194.74" class="st6"/>
			</g>
			<g id="shape12796-76" v:mID="12796" v:groupContext="shape" transform="translate(14.1732,2.84217E-14)">
				<title>工作表.12796</title>
				<desc>-1.5</desc>
				<v:textBlock v:margins="rect(0,0,0,0)" v:tabSpace="42.5197"/>
				<v:textRect cx="13.6685" cy="190.669" width="27.34" height="8.15172"/>
				<path d="M27.34 186.59 L0 186.59 L0 194.74 L27.34 194.74 L27.34 186.59" class="st7"/>
				<text x="3.33" y="194.27" class="st8" v:langID="2052"><v:paragraph v:horizAlign="1"/><v:tabList/>-1.5</text>			</g>
			<g id="shape12797-80" v:mID="12797" v:groupContext="shape" transform="translate(58.657,2.84217E-14)">
				<title>工作表.12797</title>
				<desc>-1</desc>
				<v:textBlock v:margins="rect(0,0,0,0)" v:tabSpace="42.5197"/>
				<v:textRect cx="6.51441" cy="190.669" width="13.03" height="8.15172"/>
				<path d="M13.03 186.59 L0 186.59 L0 194.74 L13.03 194.74 L13.03 186.59" class="st7"/>
				<text x="1.18" y="194.27" class="st8" v:langID="2052"><v:paragraph v:horizAlign="1"/><v:tabList/>-1</text>			</g>
			<g id="shape12798-84" v:mID="12798" v:groupContext="shape" transform="translate(82.8322,2.84217E-14)">
				<title>工作表.12798</title>
				<desc>-0.5</desc>
				<v:textBlock v:margins="rect(0,0,0,0)" v:tabSpace="42.5197"/>
				<v:textRect cx="13.6685" cy="190.669" width="27.34" height="8.15172"/>
				<path d="M27.34 186.59 L0 186.59 L0 194.74 L27.34 194.74 L27.34 186.59" class="st7"/>
				<text x="3.33" y="194.27" class="st8" v:langID="2052"><v:paragraph v:horizAlign="1"/><v:tabList/>-0.5</text>			</g>
			<g id="shape12799-88" v:mID="12799" v:groupContext="shape" transform="translate(132.8,2.84217E-14)">
				<title>工作表.12799</title>
				<desc>0</desc>
				<v:textBlock v:margins="rect(0,0,0,0)" v:tabSpace="42.5197"/>
				<v:textRect cx="3.25824" cy="190.669" width="6.52" height="8.15172"/>
				<path d="M6.52 186.59 L0 186.59 L0 194.74 L6.52 194.74 L6.52 186.59" class="st7"/>
				<text x="0" y="194.27" class="st8" v:langID="2052"><v:paragraph v:horizAlign="1"/><v:tabList/>0</text>			</g>
			<g id="shape12800-92" v:mID="12800" v:groupContext="shape" transform="translate(155.906,2.84217E-14)">
				<title>工作表.12800</title>
				<desc>0.5</desc>
				<v:textBlock v:margins="rect(0,0,0,0)" v:tabSpace="42.5197"/>
				<v:textRect cx="10.9472" cy="190.669" width="21.9" height="8.15172"/>
				<path d="M21.89 186.59 L0 186.59 L0 194.74 L21.89 194.74 L21.89 186.59" class="st7"/>
				<text x="2.61" y="194.27" class="st8" v:langID="2052"><v:paragraph v:horizAlign="1"/><v:tabList/>0.5</text>			</g>
			<g id="shape12801-96" v:mID="12801" v:groupContext="shape" transform="translate(201.983,2.84217E-14)">
				<title>工作表.12801</title>
				<desc>1</desc>
				<v:textBlock v:margins="rect(0,0,0,0)" v:tabSpace="42.5197"/>
				<v:textRect cx="3.25824" cy="190.669" width="6.52" height="8.15172"/>
				<path d="M6.52 186.59 L0 186.59 L0 194.74 L6.52 194.74 L6.52 186.59" class="st7"/>
				<text x="0" y="194.27" class="st8" v:langID="2052"><v:paragraph v:horizAlign="1"/><v:tabList/>1</text>			</g>
			<g id="shape12802-100" v:mID="12802" v:groupContext="shape" transform="translate(224.564,2.84217E-14)">
				<title>工作表.12802</title>
				<desc>1.5</desc>
				<v:textBlock v:margins="rect(0,0,0,0)" v:tabSpace="42.5197"/>
				<v:textRect cx="10.9472" cy="190.669" width="21.9" height="8.15172"/>
				<path d="M21.89 186.59 L0 186.59 L0 194.74 L21.89 194.74 L21.89 186.59" class="st7"/>
				<text x="2.61" y="194.27" class="st8" v:langID="2052"><v:paragraph v:horizAlign="1"/><v:tabList/>1.5</text>			</g>
			<g id="shape12803-104" v:mID="12803" v:groupContext="shape" transform="translate(21.1639,-12.6473)">
				<title>工作表.12803</title>
				<path d="M0 194.74 L0 15.95" class="st6"/>
			</g>
			<g id="shape12804-107" v:mID="12804" v:groupContext="shape" transform="translate(248.629,-12.6473)">
				<title>工作表.12804</title>
				<path d="M0 194.74 L0 15.95" class="st6"/>
			</g>
			<g id="shape12805-110" v:mID="12805" v:groupContext="shape" transform="translate(21.1639,-33.2786)">
				<title>工作表.12805</title>
				<path d="M0 194.74 L2.29 194.74" class="st6"/>
			</g>
			<g id="shape12806-113" v:mID="12806" v:groupContext="shape" transform="translate(21.1639,-67.6531)">
				<title>工作表.12806</title>
				<path d="M0 194.74 L2.29 194.74" class="st6"/>
			</g>
			<g id="shape12807-116" v:mID="12807" v:groupContext="shape" transform="translate(21.1639,-102.06)">
				<title>工作表.12807</title>
				<path d="M0 194.74 L2.29 194.74" class="st6"/>
			</g>
			<g id="shape12808-119" v:mID="12808" v:groupContext="shape" transform="translate(21.1639,-136.435)">
				<title>工作表.12808</title>
				<path d="M0 194.74 L2.29 194.74" class="st6"/>
			</g>
			<g id="shape12809-122" v:mID="12809" v:groupContext="shape" transform="translate(21.1639,-170.809)">
				<title>工作表.12809</title>
				<path d="M0 194.74 L2.29 194.74" class="st6"/>
			</g>
			<g id="shape12810-125" v:mID="12810" v:groupContext="shape" transform="translate(246.369,-33.2786)">
				<title>工作表.12810</title>
				<path d="M2.26 194.74 L0 194.74" class="st6"/>
			</g>
			<g id="shape12811-128" v:mID="12811" v:groupContext="shape" transform="translate(246.369,-67.6531)">
				<title>工作表.12811</title>
				<path d="M2.26 194.74 L0 194.74" class="st6"/>
			</g>
			<g id="shape12812-131" v:mID="12812" v:groupContext="shape" transform="translate(246.369,-102.06)">
				<title>工作表.12812</title>
				<path d="M2.26 194.74 L0 194.74" class="st6"/>
			</g>
			<g id="shape12813-134" v:mID="12813" v:groupContext="shape" transform="translate(246.369,-136.435)">
				<title>工作表.12813</title>
				<path d="M2.26 194.74 L0 194.74" class="st6"/>
			</g>
			<g id="shape12814-137" v:mID="12814" v:groupContext="shape" transform="translate(246.369,-170.809)">
				<title>工作表.12814</title>
				<path d="M2.26 194.74 L0 194.74" class="st6"/>
			</g>
			<g id="shape12815-140" v:mID="12815" v:groupContext="shape" transform="translate(8.15877,-28.2047)">
				<title>工作表.12815</title>
				<desc>-1</desc>
				<v:textBlock v:margins="rect(0,0,0,0)" v:tabSpace="42.5197"/>
				<v:textRect cx="6.45097" cy="190.669" width="12.91" height="8.15172"/>
				<path d="M12.9 186.59 L0 186.59 L0 194.74 L12.9 194.74 L12.9 186.59" class="st7"/>
				<text x="1.12" y="194.27" class="st8" v:langID="2052"><v:paragraph v:horizAlign="1"/><v:tabList/>-1</text>			</g>
			<g id="shape12816-144" v:mID="12816" v:groupContext="shape" transform="translate(5.59552E-14,-62.6772)">
				<title>工作表.12816</title>
				<desc>-0.5</desc>
				<v:textBlock v:margins="rect(0,0,0,0)" v:tabSpace="42.5197"/>
				<v:textRect cx="11.059" cy="190.669" width="22.12" height="8.15172"/>
				<path d="M22.12 186.59 L0 186.59 L0 194.74 L22.12 194.74 L22.12 186.59" class="st7"/>
				<text x="0.72" y="194.27" class="st8" v:langID="2052"><v:paragraph v:horizAlign="1"/><v:tabList/>-0.5</text>			</g>
			<g id="shape12817-148" v:mID="12817" v:groupContext="shape" transform="translate(11.1256,-96.6273)">
				<title>工作表.12817</title>
				<desc>0</desc>
				<v:textBlock v:margins="rect(0,0,0,0)" v:tabSpace="42.5197"/>
				<v:textRect cx="4.61094" cy="190.669" width="9.23" height="8.15172"/>
				<path d="M9.22 186.59 L0 186.59 L0 194.74 L9.22 194.74 L9.22 186.59" class="st7"/>
				<text x="1.27" y="194.27" class="st8" v:langID="2052"><v:paragraph v:horizAlign="1"/><v:tabList/>0</text>			</g>
			<g id="shape12818-152" v:mID="12818" v:groupContext="shape" transform="translate(2.96683,-131.1)">
				<title>工作表.12818</title>
				<desc>0.5</desc>
				<v:textBlock v:margins="rect(0,0,0,0)" v:tabSpace="42.5197"/>
				<v:textRect cx="9.21895" cy="190.669" width="18.44" height="8.15172"/>
				<path d="M18.44 186.59 L0 186.59 L0 194.74 L18.44 194.74 L18.44 186.59" class="st7"/>
				<text x="0.88" y="194.27" class="st8" v:langID="2052"><v:paragraph v:horizAlign="1"/><v:tabList/>0.5</text>			</g>
			<g id="shape12819-156" v:mID="12819" v:groupContext="shape" transform="translate(11.1256,-165.572)">
				<title>工作表.12819</title>
				<desc>1</desc>
				<v:textBlock v:margins="rect(0,0,0,0)" v:tabSpace="42.5197"/>
				<v:textRect cx="4.61094" cy="190.669" width="9.23" height="8.15172"/>
				<path d="M9.22 186.59 L0 186.59 L0 194.74 L9.22 194.74 L9.22 186.59" class="st7"/>
				<text x="1.27" y="194.27" class="st8" v:langID="2052"><v:paragraph v:horizAlign="1"/><v:tabList/>1</text>			</g>
			<g id="shape12820-160" v:mID="12820" v:groupContext="shape" transform="translate(65.9101,-33.2786)">
				<title>工作表.12820</title>
				<path d="M68.99 57.21 L71.18 57.25 L73.34 57.34 L75.51 57.51 L77.63 57.77 L79.8 58.06 L81.93 58.42 L84.05 58.88 L86.15
							 59.37 L88.25 59.96 L90.31 60.58 L92.38 61.29 L94.41 62.05 L96.4 62.86 L98.37 63.74 L100.34 64.72 L102.24
							 65.73 L104.13 66.78 L105.97 67.92 L107.77 69.1 L109.57 70.34 L111.31 71.64 L112.98 72.98 L114.62 74.38
							 L116.22 75.85 L117.79 77.36 L119.3 78.89 L120.78 80.49 L122.18 82.15 L123.53 83.82 L124.84 85.55 L126.08
							 87.31 L127.26 89.14 L128.41 90.97 L129.46 92.86 L130.47 94.75 L131.42 96.71 L132.34 98.67 L133.16 100.66
							 L133.91 102.69 L134.63 104.74 L135.25 106.8 L135.84 108.89 L136.34 110.98 L136.79 113.1 L137.15 115.22
							 L137.45 117.34 L137.71 119.5 L137.87 121.65 L137.97 123.81 L138.01 125.96 L137.97 128.15 L137.87 130.3
							 L137.71 132.46 L137.45 134.58 L137.15 136.74 L136.79 138.86 L136.34 140.98 L135.84 143.07 L135.25 145.16
							 L134.63 147.21 L133.91 149.27 L133.16 151.29 L132.34 153.29 L131.42 155.24 L130.47 157.2 L129.46 159.1
							 L128.41 160.99 L127.26 162.82 L126.08 164.61 L124.84 166.41 L123.53 168.14 L122.18 169.8 L120.78 171.44
							 L119.3 173.04 L117.79 174.6 L116.22 176.1 L114.62 177.57 L112.98 178.98 L111.31 180.32 L109.57 181.62
							 L107.77 182.86 L105.97 184.04 L104.13 185.18 L102.24 186.22 L100.34 187.24 L98.37 188.18 L96.4 189.1
							 L94.41 189.91 L92.38 190.66 L90.31 191.38 L88.25 192 L86.15 192.59 L84.05 193.08 L81.93 193.54 L79.8
							 193.9 L77.63 194.19 L75.51 194.45 L73.34 194.61 L71.18 194.71 L68.99 194.74 L66.82 194.71 L64.66 194.61
							 L62.5 194.45 L60.34 194.19 L58.21 193.9 L56.08 193.54 L53.95 193.08 L51.85 192.59 L49.76 192 L47.69
							 191.38 L45.63 190.66 L43.6 189.91 L41.6 189.1 L39.64 188.18 L37.67 187.24 L35.77 186.22 L33.87 185.18
							 L32.04 184.04 L30.2 182.86 L28.43 181.62 L26.7 180.32 L25.03 178.98 L23.36 177.57 L21.75 176.1 L20.21
							 174.6 L18.7 173.04 L17.23 171.44 L15.82 169.8 L14.48 168.14 L13.17 166.41 L11.92 164.61 L10.74 162.82
							 L9.6 160.99 L8.55 159.1 L7.53 157.2 L6.55 155.24 L5.67 153.29 L4.85 151.29 L4.09 149.27 L3.37 147.21
							 L2.75 145.16 L2.16 143.07 L1.67 140.98 L1.21 138.86 L0.85 136.74 L0.56 134.58 L0.29 132.46 L0.13 130.3
							 L0.03 128.15 L0 125.96 L0.03 123.81 L0.13 121.65 L0.29 119.5 L0.56 117.34 L0.85 115.22 L1.21 113.1 L1.67
							 110.98 L2.16 108.89 L2.75 106.8 L3.37 104.74 L4.09 102.69 L4.85 100.66 L5.67 98.67 L6.55 96.71 L7.53
							 94.75 L8.55 92.86 L9.6 90.97 L10.74 89.14 L11.92 87.31 L13.17 85.55 L14.48 83.82 L15.82 82.15 L17.23
							 80.49 L18.7 78.89 L20.21 77.36 L21.75 75.85 L23.36 74.38 L25.03 72.98 L26.7 71.64 L28.43 70.34 L30.2
							 69.1 L32.04 67.92 L33.87 66.78 L35.77 65.73 L37.67 64.72 L39.64 63.74 L41.6 62.86 L43.6 62.05 L45.63
							 61.29 L47.69 60.58 L49.76 59.96 L51.85 59.37 L53.95 58.88 L56.08 58.42 L58.21 58.06 L60.34 57.77 L62.5
							 57.51 L64.66 57.34 L66.82 57.25 L68.99 57.21" class="st9"/>
			</g>
		</g>
	</g>
</svg>
