<?xml version="1.0" encoding="UTF-8" standalone="no"?>
<!DOCTYPE svg PUBLIC "-//W3C//DTD SVG 1.1//EN" "http://www.w3.org/Graphics/SVG/1.1/DTD/svg11.dtd">
<!-- 由 Microsoft Visio, SVG Export 生成 椭圆.svg 页-1 -->
<svg xmlns="http://www.w3.org/2000/svg" xmlns:xlink="http://www.w3.org/1999/xlink" xmlns:ev="http://www.w3.org/2001/xml-events"
		xmlns:v="http://schemas.microsoft.com/visio/2003/SVGExtensions/" width="3.36548in" height="2.78979in"
		viewBox="0 0 242.315 200.865" xml:space="preserve" color-interpolation-filters="sRGB" class="st13">
	<v:documentProperties v:langID="2052" v:metric="true" v:viewMarkup="false"/>

	<style type="text/css">
	<![CDATA[
		.st1 {fill:#ffffff;stroke:none;stroke-linecap:round;stroke-linejoin:round;stroke-width:0.75}
		.st2 {fill:#262626;fill-opacity:0.39;stroke:none;stroke-linecap:round;stroke-linejoin:round;stroke-width:0.75}
		.st3 {fill:#262626;fill-opacity:0.43;stroke:none;stroke-linecap:round;stroke-linejoin:round;stroke-width:0.75}
		.st4 {fill:#262626;fill-opacity:0.58;stroke:none;stroke-linecap:round;stroke-linejoin:round;stroke-width:0.75}
		.st5 {fill:#262626;fill-opacity:0.42;stroke:none;stroke-linecap:round;stroke-linejoin:round;stroke-width:0.75}
		.st6 {fill:#262626;fill-opacity:0.4;stroke:none;stroke-linecap:round;stroke-linejoin:round;stroke-width:0.75}
		.st7 {fill:#262626;fill-opacity:0.45;stroke:none;stroke-linecap:round;stroke-linejoin:round;stroke-width:0.75}
		.st8 {fill:#262626;fill-opacity:0.37;stroke:none;stroke-linecap:round;stroke-linejoin:round;stroke-width:0.75}
		.st9 {stroke:#262626;stroke-linecap:round;stroke-linejoin:round;stroke-width:0.359708}
		.st10 {stroke:none;stroke-linecap:round;stroke-linejoin:round;stroke-width:0.75}
		.st11 {fill:#262626;font-family:Arial;font-size:1.00001em}
		.st12 {stroke:#0072bd;stroke-linecap:round;stroke-linejoin:round;stroke-width:0.359708}
		.st13 {fill:none;fill-rule:evenodd;font-size:12px;overflow:visible;stroke-linecap:square;stroke-miterlimit:3}
	]]>
	</style>

	<g v:mID="0" v:index="1" v:groupContext="foregroundPage">
		<title>页-1</title>
		<v:pageProperties v:drawingScale="0.0393701" v:pageScale="0.0393701" v:drawingUnits="24" v:shadowOffsetX="4.25197"
				v:shadowOffsetY="-4.25197"/>
		<g id="group26842-1" transform="translate(0,-3.1241)" v:mID="26842" v:groupContext="group">
			<title>工作表.26842</title>
			<g id="shape26756-2" v:mID="26756" v:groupContext="shape" transform="translate(14.6692,-12.6473)">
				<title>工作表.26756</title>
				<path d="M0 22.07 L0 200.86 L227.47 200.86 L227.47 22.07 L0 22.07 L0 22.07 Z" class="st1"/>
			</g>
			<g id="shape26757-4" v:mID="26757" v:groupContext="shape" transform="translate(16.0123,-12.6473)">
				<title>工作表.26757</title>
				<path d="M0 200.86 L0 22.07 L0.52 22.07 L0.52 200.86 L0 200.86 Z" class="st2"/>
			</g>
			<g id="shape26758-6" v:mID="26758" v:groupContext="shape" transform="translate(38.4509,-12.6473)">
				<title>工作表.26758</title>
				<path d="M0 200.86 L0 22.07 L0.52 22.07 L0.52 200.86 L0 200.86 Z" class="st3"/>
			</g>
			<g id="shape26759-8" v:mID="26759" v:groupContext="shape" transform="translate(60.8896,-12.6473)">
				<title>工作表.26759</title>
				<path d="M0 200.86 L0 22.07 L0.52 22.07 L0.52 200.86 L0 200.86 Z" class="st4"/>
			</g>
			<g id="shape26760-10" v:mID="26760" v:groupContext="shape" transform="translate(83.2954,-12.6473)">
				<title>工作表.26760</title>
				<path d="M0 200.86 L0 22.07 L0.52 22.07 L0.52 200.86 L0 200.86 Z" class="st4"/>
			</g>
			<g id="shape26761-12" v:mID="26761" v:groupContext="shape" transform="translate(105.734,-12.6473)">
				<title>工作表.26761</title>
				<path d="M0 200.86 L0 22.07 L0.52 22.07 L0.52 200.86 L0 200.86 Z" class="st3"/>
			</g>
			<g id="shape26762-14" v:mID="26762" v:groupContext="shape" transform="translate(128.14,-12.6473)">
				<title>工作表.26762</title>
				<path d="M0 200.86 L0 22.07 L0.52 22.07 L0.52 200.86 L0 200.86 Z" class="st4"/>
			</g>
			<g id="shape26763-16" v:mID="26763" v:groupContext="shape" transform="translate(150.579,-12.6473)">
				<title>工作表.26763</title>
				<path d="M0 200.86 L0 22.07 L0.52 22.07 L0.52 200.86 L0 200.86 Z" class="st5"/>
			</g>
			<g id="shape26764-18" v:mID="26764" v:groupContext="shape" transform="translate(173.017,-12.6473)">
				<title>工作表.26764</title>
				<path d="M0 200.86 L0 22.07 L0.52 22.07 L0.52 200.86 L0 200.86 Z" class="st6"/>
			</g>
			<g id="shape26765-20" v:mID="26765" v:groupContext="shape" transform="translate(195.423,-12.6473)">
				<title>工作表.26765</title>
				<path d="M0 200.86 L0 22.07 L0.52 22.07 L0.52 200.86 L0 200.86 Z" class="st4"/>
			</g>
			<g id="shape26766-22" v:mID="26766" v:groupContext="shape" transform="translate(217.862,-12.6473)">
				<title>工作表.26766</title>
				<path d="M0 200.86 L0 22.07 L0.52 22.07 L0.52 200.86 L0 200.86 Z" class="st4"/>
			</g>
			<g id="shape26767-24" v:mID="26767" v:groupContext="shape" transform="translate(240.268,-12.6473)">
				<title>工作表.26767</title>
				<path d="M0 200.86 L0 22.07 L0.52 22.07 L0.52 200.86 L0 200.86 Z" class="st7"/>
			</g>
			<g id="shape26768-26" v:mID="26768" v:groupContext="shape" transform="translate(14.6692,-12.3862)">
				<title>工作表.26768</title>
				<path d="M227.47 200.86 L0 200.86 L0 200.34 L227.47 200.34 L227.47 200.86 Z" class="st4"/>
			</g>
			<g id="shape26769-28" v:mID="26769" v:groupContext="shape" transform="translate(14.6692,-34.7476)">
				<title>工作表.26769</title>
				<path d="M227.47 200.86 L0 200.86 L0 200.34 L227.47 200.34 L227.47 200.86 Z" class="st3"/>
			</g>
			<g id="shape26770-30" v:mID="26770" v:groupContext="shape" transform="translate(14.6692,-57.0763)">
				<title>工作表.26770</title>
				<path d="M227.47 200.86 L0 200.86 L0 200.34 L227.47 200.34 L227.47 200.86 Z" class="st8"/>
			</g>
			<g id="shape26771-32" v:mID="26771" v:groupContext="shape" transform="translate(14.6692,-79.4377)">
				<title>工作表.26771</title>
				<path d="M227.47 200.86 L0 200.86 L0 200.34 L227.47 200.34 L227.47 200.86 Z" class="st4"/>
			</g>
			<g id="shape26772-34" v:mID="26772" v:groupContext="shape" transform="translate(14.6692,-101.799)">
				<title>工作表.26772</title>
				<path d="M227.47 200.86 L0 200.86 L0 200.34 L227.47 200.34 L227.47 200.86 Z" class="st6"/>
			</g>
			<g id="shape26773-36" v:mID="26773" v:groupContext="shape" transform="translate(14.6692,-124.128)">
				<title>工作表.26773</title>
				<path d="M227.47 200.86 L0 200.86 L0 200.34 L227.47 200.34 L227.47 200.86 Z" class="st4"/>
			</g>
			<g id="shape26774-38" v:mID="26774" v:groupContext="shape" transform="translate(14.6692,-146.489)">
				<title>工作表.26774</title>
				<path d="M227.47 200.86 L0 200.86 L0 200.34 L227.47 200.34 L227.47 200.86 Z" class="st4"/>
			</g>
			<g id="shape26775-40" v:mID="26775" v:groupContext="shape" transform="translate(14.6692,-168.818)">
				<title>工作表.26775</title>
				<path d="M227.47 200.86 L0 200.86 L0 200.34 L227.47 200.34 L227.47 200.86 Z" class="st5"/>
			</g>
			<g id="shape26776-42" v:mID="26776" v:groupContext="shape" transform="translate(14.6692,-191.179)">
				<title>工作表.26776</title>
				<path d="M227.47 200.86 L0 200.86 L0 200.34 L227.47 200.34 L227.47 200.86 Z" class="st3"/>
			</g>
			<g id="shape26777-44" v:mID="26777" v:groupContext="shape" transform="translate(14.6692,-12.6473)">
				<title>工作表.26777</title>
				<path d="M0 200.86 L227.47 200.86" class="st9"/>
			</g>
			<g id="shape26778-47" v:mID="26778" v:groupContext="shape" transform="translate(14.6692,-191.44)">
				<title>工作表.26778</title>
				<path d="M0 200.86 L227.47 200.86" class="st9"/>
			</g>
			<g id="shape26779-50" v:mID="26779" v:groupContext="shape" transform="translate(16.2743,-12.6473)">
				<title>工作表.26779</title>
				<path d="M0 200.86 L0 198.58" class="st9"/>
			</g>
			<g id="shape26780-53" v:mID="26780" v:groupContext="shape" transform="translate(38.713,-12.6473)">
				<title>工作表.26780</title>
				<path d="M0 200.86 L0 198.58" class="st9"/>
			</g>
			<g id="shape26781-56" v:mID="26781" v:groupContext="shape" transform="translate(61.1516,-12.6473)">
				<title>工作表.26781</title>
				<path d="M0 200.86 L0 198.58" class="st9"/>
			</g>
			<g id="shape26782-59" v:mID="26782" v:groupContext="shape" transform="translate(83.5575,-12.6473)">
				<title>工作表.26782</title>
				<path d="M0 200.86 L0 198.58" class="st9"/>
			</g>
			<g id="shape26783-62" v:mID="26783" v:groupContext="shape" transform="translate(105.996,-12.6473)">
				<title>工作表.26783</title>
				<path d="M0 200.86 L0 198.58" class="st9"/>
			</g>
			<g id="shape26784-65" v:mID="26784" v:groupContext="shape" transform="translate(128.402,-12.6473)">
				<title>工作表.26784</title>
				<path d="M0 200.86 L0 198.58" class="st9"/>
			</g>
			<g id="shape26785-68" v:mID="26785" v:groupContext="shape" transform="translate(150.841,-12.6473)">
				<title>工作表.26785</title>
				<path d="M0 200.86 L0 198.58" class="st9"/>
			</g>
			<g id="shape26786-71" v:mID="26786" v:groupContext="shape" transform="translate(173.279,-12.6473)">
				<title>工作表.26786</title>
				<path d="M0 200.86 L0 198.58" class="st9"/>
			</g>
			<g id="shape26787-74" v:mID="26787" v:groupContext="shape" transform="translate(195.685,-12.6473)">
				<title>工作表.26787</title>
				<path d="M0 200.86 L0 198.58" class="st9"/>
			</g>
			<g id="shape26788-77" v:mID="26788" v:groupContext="shape" transform="translate(218.124,-12.6473)">
				<title>工作表.26788</title>
				<path d="M0 200.86 L0 198.58" class="st9"/>
			</g>
			<g id="shape26789-80" v:mID="26789" v:groupContext="shape" transform="translate(240.53,-12.6473)">
				<title>工作表.26789</title>
				<path d="M0 200.86 L0 198.58" class="st9"/>
			</g>
			<g id="shape26790-83" v:mID="26790" v:groupContext="shape" transform="translate(16.2743,-189.155)">
				<title>工作表.26790</title>
				<path d="M0 198.58 L0 200.86" class="st9"/>
			</g>
			<g id="shape26791-86" v:mID="26791" v:groupContext="shape" transform="translate(38.713,-189.155)">
				<title>工作表.26791</title>
				<path d="M0 198.58 L0 200.86" class="st9"/>
			</g>
			<g id="shape26792-89" v:mID="26792" v:groupContext="shape" transform="translate(61.1516,-189.155)">
				<title>工作表.26792</title>
				<path d="M0 198.58 L0 200.86" class="st9"/>
			</g>
			<g id="shape26793-92" v:mID="26793" v:groupContext="shape" transform="translate(83.5575,-189.155)">
				<title>工作表.26793</title>
				<path d="M0 198.58 L0 200.86" class="st9"/>
			</g>
			<g id="shape26794-95" v:mID="26794" v:groupContext="shape" transform="translate(105.996,-189.155)">
				<title>工作表.26794</title>
				<path d="M0 198.58 L0 200.86" class="st9"/>
			</g>
			<g id="shape26795-98" v:mID="26795" v:groupContext="shape" transform="translate(128.402,-189.155)">
				<title>工作表.26795</title>
				<path d="M0 198.58 L0 200.86" class="st9"/>
			</g>
			<g id="shape26796-101" v:mID="26796" v:groupContext="shape" transform="translate(150.841,-189.155)">
				<title>工作表.26796</title>
				<path d="M0 198.58 L0 200.86" class="st9"/>
			</g>
			<g id="shape26797-104" v:mID="26797" v:groupContext="shape" transform="translate(173.279,-189.155)">
				<title>工作表.26797</title>
				<path d="M0 198.58 L0 200.86" class="st9"/>
			</g>
			<g id="shape26798-107" v:mID="26798" v:groupContext="shape" transform="translate(195.685,-189.155)">
				<title>工作表.26798</title>
				<path d="M0 198.58 L0 200.86" class="st9"/>
			</g>
			<g id="shape26799-110" v:mID="26799" v:groupContext="shape" transform="translate(218.124,-189.155)">
				<title>工作表.26799</title>
				<path d="M0 198.58 L0 200.86" class="st9"/>
			</g>
			<g id="shape26800-113" v:mID="26800" v:groupContext="shape" transform="translate(240.53,-189.155)">
				<title>工作表.26800</title>
				<path d="M0 198.58 L0 200.86" class="st9"/>
			</g>
			<g id="shape26802-116" v:mID="26802" v:groupContext="shape" transform="translate(30.3107,2.84217E-14)">
				<title>工作表.26802</title>
				<desc>-2</desc>
				<v:textBlock v:margins="rect(0,0,0,0)" v:tabSpace="42.5197"/>
				<v:textRect cx="7.22002" cy="196.789" width="14.45" height="8.15172"/>
				<path d="M14.44 192.71 L0 192.71 L0 200.86 L14.44 200.86 L14.44 192.71" class="st10"/>
				<text x="1.88" y="200.39" class="st11" v:langID="2052"><v:paragraph v:horizAlign="1"/><v:tabList/>-2</text>			</g>
			<g id="shape26804-120" v:mID="26804" v:groupContext="shape" transform="translate(74.8604,2.84217E-14)">
				<title>工作表.26804</title>
				<desc>-1</desc>
				<v:textBlock v:margins="rect(0,0,0,0)" v:tabSpace="42.5197"/>
				<v:textRect cx="7.22002" cy="196.789" width="14.45" height="8.15172"/>
				<path d="M14.44 192.71 L0 192.71 L0 200.86 L14.44 200.86 L14.44 192.71" class="st10"/>
				<text x="1.88" y="200.39" class="st11" v:langID="2052"><v:paragraph v:horizAlign="1"/><v:tabList/>-1</text>			</g>
			<g id="shape26806-124" v:mID="26806" v:groupContext="shape" transform="translate(126.306,2.84217E-14)">
				<title>工作表.26806</title>
				<desc>0</desc>
				<v:textBlock v:margins="rect(0,0,0,0)" v:tabSpace="42.5197"/>
				<v:textRect cx="3.25824" cy="196.789" width="6.52" height="8.15172"/>
				<path d="M6.52 192.71 L0 192.71 L0 200.86 L6.52 200.86 L6.52 192.71" class="st10"/>
				<text x="0" y="200.39" class="st11" v:langID="2052"><v:paragraph v:horizAlign="1"/><v:tabList/>0</text>			</g>
			<g id="shape26808-128" v:mID="26808" v:groupContext="shape" transform="translate(171.379,2.84217E-14)">
				<title>工作表.26808</title>
				<desc>1</desc>
				<v:textBlock v:margins="rect(0,0,0,0)" v:tabSpace="42.5197"/>
				<v:textRect cx="3.25824" cy="196.789" width="6.52" height="8.15172"/>
				<path d="M6.52 192.71 L0 192.71 L0 200.86 L6.52 200.86 L6.52 192.71" class="st10"/>
				<text x="0" y="200.39" class="st11" v:langID="2052"><v:paragraph v:horizAlign="1"/><v:tabList/>1</text>			</g>
			<g id="shape26810-132" v:mID="26810" v:groupContext="shape" transform="translate(215.929,2.84217E-14)">
				<title>工作表.26810</title>
				<desc>2</desc>
				<v:textBlock v:margins="rect(0,0,0,0)" v:tabSpace="42.5197"/>
				<v:textRect cx="3.25824" cy="196.789" width="6.52" height="8.15172"/>
				<path d="M6.52 192.71 L0 192.71 L0 200.86 L6.52 200.86 L6.52 192.71" class="st10"/>
				<text x="0" y="200.39" class="st11" v:langID="2052"><v:paragraph v:horizAlign="1"/><v:tabList/>2</text>			</g>
			<g id="shape26812-136" v:mID="26812" v:groupContext="shape" transform="translate(14.6692,-12.6473)">
				<title>工作表.26812</title>
				<path d="M0 200.86 L0 22.07" class="st9"/>
			</g>
			<g id="shape26813-139" v:mID="26813" v:groupContext="shape" transform="translate(242.135,-12.6473)">
				<title>工作表.26813</title>
				<path d="M0 200.86 L0 22.07" class="st9"/>
			</g>
			<g id="shape26814-142" v:mID="26814" v:groupContext="shape" transform="translate(14.6692,-12.6473)">
				<title>工作表.26814</title>
				<path d="M0 200.86 L2.29 200.86" class="st9"/>
			</g>
			<g id="shape26815-145" v:mID="26815" v:groupContext="shape" transform="translate(14.6692,-35.0087)">
				<title>工作表.26815</title>
				<path d="M0 200.86 L2.29 200.86" class="st9"/>
			</g>
			<g id="shape26816-148" v:mID="26816" v:groupContext="shape" transform="translate(14.6692,-57.3375)">
				<title>工作表.26816</title>
				<path d="M0 200.86 L2.29 200.86" class="st9"/>
			</g>
			<g id="shape26817-151" v:mID="26817" v:groupContext="shape" transform="translate(14.6692,-79.6989)">
				<title>工作表.26817</title>
				<path d="M0 200.86 L2.29 200.86" class="st9"/>
			</g>
			<g id="shape26818-154" v:mID="26818" v:groupContext="shape" transform="translate(14.6692,-102.06)">
				<title>工作表.26818</title>
				<path d="M0 200.86 L2.29 200.86" class="st9"/>
			</g>
			<g id="shape26819-157" v:mID="26819" v:groupContext="shape" transform="translate(14.6692,-124.389)">
				<title>工作表.26819</title>
				<path d="M0 200.86 L2.29 200.86" class="st9"/>
			</g>
			<g id="shape26820-160" v:mID="26820" v:groupContext="shape" transform="translate(14.6692,-146.75)">
				<title>工作表.26820</title>
				<path d="M0 200.86 L2.29 200.86" class="st9"/>
			</g>
			<g id="shape26821-163" v:mID="26821" v:groupContext="shape" transform="translate(14.6692,-169.079)">
				<title>工作表.26821</title>
				<path d="M0 200.86 L2.29 200.86" class="st9"/>
			</g>
			<g id="shape26822-166" v:mID="26822" v:groupContext="shape" transform="translate(14.6692,-191.44)">
				<title>工作表.26822</title>
				<path d="M0 200.86 L2.29 200.86" class="st9"/>
			</g>
			<g id="shape26823-169" v:mID="26823" v:groupContext="shape" transform="translate(239.875,-12.6473)">
				<title>工作表.26823</title>
				<path d="M2.26 200.86 L0 200.86" class="st9"/>
			</g>
			<g id="shape26824-172" v:mID="26824" v:groupContext="shape" transform="translate(239.875,-35.0087)">
				<title>工作表.26824</title>
				<path d="M2.26 200.86 L0 200.86" class="st9"/>
			</g>
			<g id="shape26825-175" v:mID="26825" v:groupContext="shape" transform="translate(239.875,-57.3375)">
				<title>工作表.26825</title>
				<path d="M2.26 200.86 L0 200.86" class="st9"/>
			</g>
			<g id="shape26826-178" v:mID="26826" v:groupContext="shape" transform="translate(239.875,-79.6989)">
				<title>工作表.26826</title>
				<path d="M2.26 200.86 L0 200.86" class="st9"/>
			</g>
			<g id="shape26827-181" v:mID="26827" v:groupContext="shape" transform="translate(239.875,-102.06)">
				<title>工作表.26827</title>
				<path d="M2.26 200.86 L0 200.86" class="st9"/>
			</g>
			<g id="shape26828-184" v:mID="26828" v:groupContext="shape" transform="translate(239.875,-124.389)">
				<title>工作表.26828</title>
				<path d="M2.26 200.86 L0 200.86" class="st9"/>
			</g>
			<g id="shape26829-187" v:mID="26829" v:groupContext="shape" transform="translate(239.875,-146.75)">
				<title>工作表.26829</title>
				<path d="M2.26 200.86 L0 200.86" class="st9"/>
			</g>
			<g id="shape26830-190" v:mID="26830" v:groupContext="shape" transform="translate(239.875,-169.079)">
				<title>工作表.26830</title>
				<path d="M2.26 200.86 L0 200.86" class="st9"/>
			</g>
			<g id="shape26831-193" v:mID="26831" v:groupContext="shape" transform="translate(239.875,-191.44)">
				<title>工作表.26831</title>
				<path d="M2.26 200.86 L0 200.86" class="st9"/>
			</g>
			<g id="shape26832-196" v:mID="26832" v:groupContext="shape" transform="translate(-3.59712E-14,-7.31234)">
				<title>工作表.26832</title>
				<desc>-2</desc>
				<v:textBlock v:margins="rect(0,0,0,0)" v:tabSpace="42.5197"/>
				<v:textRect cx="7.22002" cy="196.789" width="14.45" height="8.15172"/>
				<path d="M14.44 192.71 L0 192.71 L0 200.86 L14.44 200.86 L14.44 192.71" class="st10"/>
				<text x="1.88" y="200.39" class="st11" v:langID="2052"><v:paragraph v:horizAlign="1"/><v:tabList/>-2</text>			</g>
			<g id="shape26834-200" v:mID="26834" v:groupContext="shape" transform="translate(-3.59712E-14,-52.231)">
				<title>工作表.26834</title>
				<desc>-1</desc>
				<v:textBlock v:margins="rect(0,0,0,0)" v:tabSpace="42.5197"/>
				<v:textRect cx="7.22002" cy="196.789" width="14.45" height="8.15172"/>
				<path d="M14.44 192.71 L0 192.71 L0 200.86 L14.44 200.86 L14.44 192.71" class="st10"/>
				<text x="1.88" y="200.39" class="st11" v:langID="2052"><v:paragraph v:horizAlign="1"/><v:tabList/>-1</text>			</g>
			<g id="shape26836-204" v:mID="26836" v:groupContext="shape" transform="translate(3.32052,-96.6273)">
				<title>工作表.26836</title>
				<desc>0</desc>
				<v:textBlock v:margins="rect(0,0,0,0)" v:tabSpace="42.5197"/>
				<v:textRect cx="5.16063" cy="196.789" width="10.33" height="8.15172"/>
				<path d="M10.32 192.71 L0 192.71 L0 200.86 L10.32 200.86 L10.32 192.71" class="st10"/>
				<text x="1.82" y="200.39" class="st11" v:langID="2052"><v:paragraph v:horizAlign="1"/><v:tabList/>0</text>			</g>
			<g id="shape26838-208" v:mID="26838" v:groupContext="shape" transform="translate(3.32052,-141.546)">
				<title>工作表.26838</title>
				<desc>1</desc>
				<v:textBlock v:margins="rect(0,0,0,0)" v:tabSpace="42.5197"/>
				<v:textRect cx="5.16063" cy="196.789" width="10.33" height="8.15172"/>
				<path d="M10.32 192.71 L0 192.71 L0 200.86 L10.32 200.86 L10.32 192.71" class="st10"/>
				<text x="1.82" y="200.39" class="st11" v:langID="2052"><v:paragraph v:horizAlign="1"/><v:tabList/>1</text>			</g>
			<g id="shape26840-212" v:mID="26840" v:groupContext="shape" transform="translate(3.32052,-186.465)">
				<title>工作表.26840</title>
				<desc>2</desc>
				<v:textBlock v:margins="rect(0,0,0,0)" v:tabSpace="42.5197"/>
				<v:textRect cx="5.16063" cy="196.789" width="10.33" height="8.15172"/>
				<path d="M10.32 192.71 L0 192.71 L0 200.86 L10.32 200.86 L10.32 192.71" class="st10"/>
				<text x="1.82" y="200.39" class="st11" v:langID="2052"><v:paragraph v:horizAlign="1"/><v:tabList/>2</text>			</g>
			<g id="shape26841-216" v:mID="26841" v:groupContext="shape" transform="translate(38.713,-57.3375)">
				<title>工作表.26841</title>
				<path d="M89.69 111.45 L92.51 111.48 L95.32 111.55 L98.14 111.65 L100.96 111.81 L103.74 112.01 L106.53 112.27 L109.28
							 112.53 L112 112.86 L114.72 113.25 L117.43 113.64 L120.09 114.1 L122.74 114.59 L125.33 115.14 L127.88
							 115.73 L130.44 116.35 L132.93 117 L135.35 117.69 L137.78 118.4 L140.14 119.19 L142.43 120 L144.69 120.85
							 L146.88 121.7 L149.01 122.62 L151.11 123.56 L153.14 124.54 L155.11 125.55 L157 126.6 L158.81 127.68
							 L160.58 128.75 L162.28 129.9 L163.88 131.04 L165.46 132.21 L166.93 133.39 L168.31 134.63 L169.62 135.87
							 L170.86 137.11 L172.04 138.42 L173.12 139.69 L174.1 141.03 L175.02 142.33 L175.84 143.67 L176.59 145.04
							 L177.25 146.41 L177.81 147.78 L178.3 149.16 L178.69 150.56 L179.02 151.96 L179.21 153.33 L179.38 154.74
							 L179.41 156.14 L179.38 157.55 L179.21 158.95 L179.02 160.35 L178.69 161.76 L178.3 163.16 L177.81 164.53
							 L177.25 165.9 L176.59 167.27 L175.84 168.61 L175.02 169.98 L174.1 171.29 L173.12 172.63 L172.04 173.9
							 L170.86 175.17 L169.62 176.45 L168.31 177.69 L166.93 178.89 L165.46 180.1 L163.88 181.28 L162.28 182.42
							 L160.58 183.56 L158.81 184.64 L157 185.72 L155.11 186.76 L153.14 187.77 L151.11 188.75 L149.01 189.7
							 L146.88 190.58 L144.69 191.46 L142.43 192.31 L140.14 193.13 L137.78 193.91 L135.35 194.63 L132.93 195.32
							 L130.44 195.97 L127.88 196.59 L125.33 197.18 L122.74 197.73 L120.09 198.22 L117.43 198.68 L114.72 199.07
							 L112 199.46 L109.28 199.79 L106.53 200.05 L103.74 200.31 L100.96 200.51 L98.14 200.67 L95.32 200.77
							 L92.51 200.83 L89.69 200.86 L86.87 200.83 L84.09 200.77 L81.27 200.67 L78.45 200.51 L75.67 200.31 L72.88
							 200.05 L70.13 199.79 L67.38 199.46 L64.66 199.07 L61.98 198.68 L59.32 198.22 L56.67 197.73 L54.08 197.18
							 L51.53 196.59 L48.97 195.97 L46.48 195.32 L44.06 194.63 L41.63 193.91 L39.28 193.13 L36.98 192.31 L34.72
							 191.46 L32.53 190.58 L30.4 189.7 L28.3 188.75 L26.27 187.77 L24.31 186.76 L22.41 185.72 L20.57 184.64
							 L18.84 183.56 L17.13 182.42 L15.53 181.28 L13.95 180.1 L12.48 178.89 L11.1 177.69 L9.79 176.45 L8.55
							 175.17 L7.37 173.9 L6.29 172.63 L5.31 171.29 L4.39 169.98 L3.57 168.61 L2.82 167.27 L2.16 165.9 L1.61
							 164.53 L1.11 163.16 L0.72 161.76 L0.39 160.35 L0.16 158.95 L0.03 157.55 L0 156.14 L0.03 154.74 L0.16
							 153.33 L0.39 151.96 L0.72 150.56 L1.11 149.16 L1.61 147.78 L2.16 146.41 L2.82 145.04 L3.57 143.67 L4.39
							 142.33 L5.31 141.03 L6.29 139.69 L7.37 138.42 L8.55 137.11 L9.79 135.87 L11.1 134.63 L12.48 133.39 L13.95
							 132.21 L15.53 131.04 L17.13 129.9 L18.84 128.75 L20.57 127.68 L22.41 126.6 L24.31 125.55 L26.27 124.54
							 L28.3 123.56 L30.4 122.62 L32.53 121.7 L34.72 120.85 L36.98 120 L39.28 119.19 L41.63 118.4 L44.06 117.69
							 L46.48 117 L48.97 116.35 L51.53 115.73 L54.08 115.14 L56.67 114.59 L59.32 114.1 L61.98 113.64 L64.66
							 113.25 L67.38 112.86 L70.13 112.53 L72.88 112.27 L75.67 112.01 L78.45 111.81 L81.27 111.65 L84.09 111.55
							 L86.87 111.48 L89.69 111.45" class="st12"/>
			</g>
		</g>
	</g>
</svg>
